# xmcd
#
# Track frame offsets: 
#        150
#        20068
#        45136
#        63986
#        85569
#        101435
#        117334
#        136662
#        155678
#        175670
#        192956
#        212194
#
# Disc length: 3053 seconds
#
# Revision: 0
# Processed by: cddbd v1.5.2PL0 Copyright (c) Steve Scherf et al.
# Submitted via: ExactAudioCopy v1.0b3
#
DISCID=940beb0c
DTITLE=Ilir Shaqiri - Bota e Rinisë
DYEAR=2002
DGENRE=Folk - Shqip
TTITLE0=Bota e Rinisë
TTITLE1=Kaloreri i Udhes "I"
TTITLE2=Para tije Perkulet Mali
TTITLE3=Rrezja e Majesharrit
TTITLE4=Porosi Brezash
TTITLE5=Te Rrapi Ne Mashkullor
TTITLE6=Xheneral Skenderi
TTITLE7=Murane ne Breg te Diellit
TTITLE8=Arben Haliti
TTITLE9=Durimi I Artimit
TTITLE10=Zeri i Atedheut
TTITLE11=Thellezat e Jugut
EXTD=
EXTT0=
EXTT1=
EXTT2=
EXTT3=
EXTT4=
EXTT5=
EXTT6=
EXTT7=
EXTT8=
EXTT9=
EXTT10=
EXTT11=
PLAYORDER=
